HIERARCHY
ROOT Hips
{
    OFFSET 0.000000 0.000000 0.000000
    CHANNELS 6 Xposition Yposition Zposition Zrotation Xrotation Yrotation
    JOINT Spine
    {
        OFFSET -0.000000 7.814340 0.000000
        CHANNELS 3 Zrotation Xrotation Yrotation
        JOINT Spine1
        {
            OFFSET -0.000000 23.378139 0.000000
            CHANNELS 3 Zrotation Xrotation Yrotation
            JOINT Neck
            {
                OFFSET -0.000000 23.282129 2.116557
                CHANNELS 3 Zrotation Xrotation Yrotation
                JOINT Head
                {
                    OFFSET -0.000000 13.341557 -1.905937
                    CHANNELS 3 Zrotation Xrotation Yrotation
                    End Site
                    {
                        OFFSET -0.000000 23.824207 0.000000
                    }
                }
            }
            JOINT LeftShoulder
            {
                OFFSET 3.824717 21.491646 -0.175476
                CHANNELS 3 Zrotation Xrotation Yrotation
                JOINT LeftArm
                {
                    OFFSET 10.823906 0.000000 0.000000
                    CHANNELS 3 Zrotation Xrotation Yrotation
                    JOINT LeftForeArm
                    {
                        OFFSET 28.535641 0.000000 0.000000
                        CHANNELS 3 Zrotation Xrotation Yrotation
                        JOINT LeftHand
                        {
                            OFFSET 24.531507 0.000000 0.000000
                            CHANNELS 3 Zrotation Xrotation Yrotation
                            End Site
                            {
                                OFFSET 14.294524 0.000000 0.000000
                            }
                        }
                    }
                }
            }
            JOINT RightShoulder
            {
                OFFSET -3.770332 21.491646 -0.175476
                CHANNELS 3 Zrotation Xrotation Yrotation
                JOINT RightArm
                {
                    OFFSET -10.823906 0.000000 0.000000
                    CHANNELS 3 Zrotation Xrotation Yrotation
                    JOINT RightForeArm
                    {
                        OFFSET -28.535641 0.000000 0.000000
                        CHANNELS 3 Zrotation Xrotation Yrotation
                        JOINT RightHand
                        {
                            OFFSET -24.531507 0.000000 0.000000
                            CHANNELS 3 Zrotation Xrotation Yrotation
                            End Site
                            {
                                OFFSET -14.294524 0.000000 0.000000
                            }
                        }
                    }
                }
            }
        }
    }
    JOINT LeftUpLeg
    {
        OFFSET 9.529683 0.000000 0.000000
        CHANNELS 3 Zrotation Xrotation Yrotation
        JOINT LeftLeg
        {
            OFFSET -0.000000 -40.188419 0.000000
            CHANNELS 3 Zrotation Xrotation Yrotation
            JOINT LeftFoot
            {
                OFFSET -0.000000 -39.995377 0.000000
                CHANNELS 3 Zrotation Xrotation Yrotation
                JOINT LeftToeBase
                {
                    OFFSET -0.000000 -6.194294 14.294524
                    CHANNELS 3 Zrotation Xrotation Yrotation
                    End Site
                    {
                        OFFSET -0.000000 0.000000 3.811873
                    }
                }
            }
        }
    }
    JOINT RightUpLeg
    {
        OFFSET -9.529683 0.000000 0.000000
        CHANNELS 3 Zrotation Xrotation Yrotation
        JOINT RightLeg
        {
            OFFSET -0.000000 -40.188419 0.000000
            CHANNELS 3 Zrotation Xrotation Yrotation
            JOINT RightFoot
            {
                OFFSET -0.000000 -39.995377 0.000000
                CHANNELS 3 Zrotation Xrotation Yrotation
                JOINT RightToeBase
                {
                    OFFSET -0.000000 -6.194294 14.294524
                    CHANNELS 3 Zrotation Xrotation Yrotation
                    End Site
                    {
                        OFFSET -0.000000 0.000000 3.811873
                    }
                }
            }
        }
    }
}
MOTION
Frames:    10
Frame Time:    0.004000
-10.997981    81.189934    -202.997971    0.103041    -0.575165    3.110543    0.003763    -4.153128    -0.064724    -2.465643    0.705299    -0.050284    3.982177    16.711468    0.478498    -3.746743    3.842985    0.103523    21.275341    -0.946595    8.791658    -19.353800    1.984304    0.357345    1.511332    -0.652440    1.502036    -5.348731    -0.631516    -0.873333    -13.896691    -0.603148    5.760407    12.547812    -1.456671    -0.410528    1.426304    2.753322    -0.749276    -0.200359    2.761239    0.814001    1.167896    8.479459    0.850584    -4.904522    -5.688526    -5.005134    7.991590    -7.927126    6.182164    0.000000    0.000000    0.000000    -1.136890    3.601905    1.713689    3.355423    -0.925447    1.801726    -6.411136    -9.426467    3.490605    0.000000    0.000000    0.000000    
-11.002975    81.190292    -202.998764    0.102974    -0.575248    3.106196    0.008986    -4.147238    -0.066026    -2.462092    0.701885    -0.051232    3.985021    16.705717    0.481753    -3.749789    3.869261    0.107265    21.268106    -0.947861    8.791315    -19.345646    2.008079    0.363515    1.509171    -0.651081    1.490955    -5.349854    -0.633772    -0.792874    -13.901882    -0.595168    5.771815    12.544166    -1.504445    -0.406253    1.415876    2.718261    -0.739405    -0.189295    2.726047    0.809735    1.173942    8.479115    0.855646    -4.912743    -5.680433    -5.018764    8.032611    -7.935369    6.201558    0.000000    0.000000    0.000000    -1.130818    3.599354    1.700596    3.346695    -0.919819    1.821402    -6.401044    -9.432279    3.491891    0.000000    0.000000    0.000000    
-11.002733    81.190010    -202.998779    0.108045    -0.577385    3.107334    0.009349    -4.143908    -0.064522    -2.463112    0.702175    -0.050714    3.986602    16.723307    0.477456    -3.747460    3.845859    0.102986    21.265669    -0.950454    8.782184    -19.341085    1.988240    0.366526    1.494193    -0.633813    1.503996    -5.332643    -0.614103    -0.845436    -13.906516    -0.603141    5.781110    12.553139    -1.486082    -0.419260    1.400501    2.677026    -0.730083    -0.176820    2.684699    0.803705    1.165759    8.477887    0.846120    -4.902446    -5.672952    -5.018495    8.021514    -7.938483    6.205144    0.000000    0.000000    0.000000    -1.136326    3.606584    1.702322    3.347953    -0.932966    1.788606    -6.392977    -9.422420    3.520052    0.000000    0.000000    0.000000    
-11.004032    81.189270    -203.000809    0.108353    -0.578306    3.101094    0.013097    -4.135233    -0.064387    -2.464316    0.697765    -0.049537    3.987042    16.699797    0.483228    -3.736654    3.887470    0.110609    21.263981    -0.953066    8.796260    -19.339651    2.004457    0.358780    1.496966    -0.625050    1.502768    -5.343713    -0.605126    -0.848044    -13.898643    -0.604754    5.791055    12.544046    -1.496188    -0.426042    1.361138    2.609878    -0.695498    0.318292    2.620240    0.756463    1.166957    8.475337    0.852388    -4.901834    -5.669668    -5.046441    8.022247    -7.942303    6.215752    0.000000    0.000000    0.000000    -1.133808    3.605419    1.695141    3.342729    -0.934467    1.794886    -6.389024    -9.428204    3.530734    0.000000    0.000000    0.000000    
-11.003557    81.190369    -203.000549    0.113503    -0.573191    3.102286    0.011068    -4.137647    -0.063702    -2.458778    0.690804    -0.048982    3.986586    16.709576    0.478153    -3.739434    3.890729    0.105568    21.253984    -0.956688    8.784262    -19.326302    1.982901    0.365736    1.455103    -0.636800    1.456574    -5.195599    -0.620072    -0.778617    -13.908652    -0.601055    5.795778    12.543682    -1.508505    -0.430021    1.361014    2.562633    -0.690016    0.318061    2.572956    0.768253    1.156675    8.472012    0.851189    -4.897848    -5.668422    -5.011955    8.016211    -7.937296    6.208140    0.000000    0.000000    0.000000    -1.144221    3.599533    1.710377    3.351065    -0.927428    1.798676    -6.390546    -9.426770    3.508854    0.000000    0.000000    0.000000    
-11.007071    81.191170    -203.001862    0.113129    -0.566923    3.101217    0.012514    -4.141206    -0.065158    -2.464385    0.688148    -0.051338    3.999850    16.714128    0.476057    -3.740939    3.892565    0.103428    21.266130    -0.941955    8.789138    -19.333567    1.960875    0.359132    1.460091    -0.616775    1.458515    -5.233489    -0.600160    -0.770684    -13.892529    -0.595589    5.802195    12.536657    -1.505039    -0.427868    1.334489    2.503126    -0.678671    0.384920    2.513590    0.761460    1.159014    8.463050    0.849022    -4.893959    -5.668458    -5.011866    8.023724    -7.940276    6.196714    0.000000    0.000000    0.000000    -1.112830    3.613598    1.610220    3.287438    -0.976205    1.724219    -6.319429    -9.414698    3.713144    0.000000    0.000000    0.000000    
-11.010086    81.191132    -203.002457    0.111794    -0.567483    3.098790    0.018422    -4.136013    -0.064195    -2.464349    0.682311    -0.050633    4.039738    16.724045    0.482346    -3.802851    3.889514    0.103653    21.253645    -0.948048    8.780602    -19.325264    1.981381    0.370562    1.469024    -0.622850    1.453896    -5.239855    -0.607043    -0.753853    -13.897600    -0.596852    5.812880    12.536655    -1.539989    -0.438876    1.332887    2.453379    -0.662462    0.416697    2.463771    0.741409    1.165508    8.455801    0.848189    -4.899005    -5.650249    -5.019017    8.036535    -7.943692    6.200982    0.000000    0.000000    0.000000    -1.111461    3.613494    1.609040    3.299802    -0.981437    1.725299    -6.336918    -9.406096    3.704646    0.000000    0.000000    0.000000    
-11.010173    81.191673    -203.001663    0.119724    -0.570771    3.096294    0.009979    -4.128608    -0.062197    -2.449940    0.677883    -0.047845    4.034430    16.716192    0.473560    -3.808365    3.917494    0.094590    21.235891    -0.950369    8.778161    -19.316912    2.008442    0.371817    1.468344    -0.626718    1.449300    -5.248461    -0.611047    -0.746714    -13.911807    -0.595161    5.811036    12.543623    -1.544977    -0.438795    1.309441    2.392918    -0.656335    0.471034    2.403542    0.764351    1.152601    8.467503    0.843619    -4.889828    -5.668800    -4.989809    8.002227    -7.933899    6.190007    0.000000    0.000000    0.000000    -1.119015    3.620795    1.620041    3.298499    -0.993469    1.699239    -6.334859    -9.397554    3.722986    0.000000    0.000000    0.000000    
-11.012496    81.191185    -203.003616    0.116310    -0.561887    3.096827    0.017021    -4.131745    -0.063488    -2.453110    0.668697    -0.050130    4.025792    16.733418    0.472961    -3.786554    3.900727    0.096359    21.244028    -0.951817    8.772115    -19.317135    1.990884    0.380659    1.451545    -0.603367    1.456298    -5.253992    -0.586952    -0.759838    -13.904719    -0.591113    5.823631    12.542135    -1.515923    -0.446523    1.278098    2.307945    -0.642433    0.558818    2.318795    0.755037    1.158796    8.457211    0.842965    -4.892880    -5.668793    -5.002437    8.021931    -7.942531    6.192338    0.000000    0.000000    0.000000    -1.115215    3.609197    1.613648    3.299904    -0.987458    1.731104    -6.350236    -9.402581    3.695448    0.000000    0.000000    0.000000    
-11.015030    81.189804    -203.002670    0.111242    -0.570344    3.096056    0.023504    -4.119388    -0.062489    -2.448205    0.664105    -0.049750    4.034722    16.718533    0.471180    -3.794558    3.938546    0.094417    21.230513    -0.945384    8.771382    -19.311045    2.011157    0.376457    1.464594    -0.620738    1.456147    -5.276237    -0.604639    -0.754918    -13.912053    -0.597039    5.824064    12.548712    -1.526707    -0.445895    1.329524    2.310918    -0.691047    -0.280464    2.316806    0.872254    1.164898    8.462171    0.849393    -4.891178    -5.658063    -5.003435    8.035208    -7.958203    6.194589    0.000000    0.000000    0.000000    -1.103607    3.617374    1.610371    3.288944    -0.987740    1.706573    -6.321320    -9.408237    3.730998    0.000000    0.000000    0.000000    
